<?xml version="1.0" encoding="utf-8"?>
<!-- Generator: Adobe Illustrator 24.0.1, SVG Export Plug-In . SVG Version: 6.00 Build 0)  -->
<svg version="1.1" id="Layer_1" xmlns="http://www.w3.org/2000/svg" xmlns:xlink="http://www.w3.org/1999/xlink" x="0px" y="0px"
	 viewBox="0 0 2001 2001" style="enable-background:new 0 0 2001 2001;" xml:space="preserve">
<style type="text/css">
	.st0{fill:#17A2B8;}
	.st1{fill:#FFFFFF;}
</style>
<title>red logo</title>
<path class="st0" d="M1642.8,0.5H358.2C160.6,0.5,0.5,160.6,0.5,358.2v1284.6c0,197.6,160.1,357.7,357.7,357.7h1284.6
	c197.6,0,357.7-160.2,357.7-357.7V358.2C2000.5,160.6,1840.3,0.5,1642.8,0.5z"/>
<rect x="245.5" y="841.5" class="st1" width="317.9" height="755"/>
<circle class="st1" cx="404.5" cy="563.4" r="159"/>
<path class="st1" d="M1000.5,801.1v398.8c0,43.5,35.3,78.8,78.8,78.8h676.3v317.9h-914c-87.8,0-159-71.2-159-159V563.4
	c0-87.8,71.2-159,159-159h914v317.9h-676.3C1035.8,722.3,1000.5,757.6,1000.5,801.1z"/>
</svg>
