<?xml version="1.0" encoding="utf-8"?>
<!-- Generator: Adobe Illustrator 23.0.1, SVG Export Plug-In . SVG Version: 6.00 Build 0)  -->
<svg version="1.1" id="Layer_1" xmlns="http://www.w3.org/2000/svg" xmlns:xlink="http://www.w3.org/1999/xlink" x="0px" y="0px"
	 viewBox="0 0 480 480" style="enable-background:new 0 0 480 480;" xml:space="preserve">
<style type="text/css">
	.st0{display:none;fill:none;}
	.st1{fill:#9B59B6;}
	.st2{fill:#FFFFFF;}
</style>
<g>
	<path class="st0" d="M0,480V0h480v480H0z"/>
	<g>
		<path class="st1" d="M229,32.9c6.8-3.8,15.2-3.8,21.9,0c33.6,18.8,134.5,75.5,168.1,94.3c6.8,3.8,11,10.8,11,18.5
			c0,37.7,0,151,0,188.7c0,7.6-4.2,14.7-11,18.5c-33.5,18.8-134.5,75.5-168.1,94.3c-6.8,3.8-15.1,3.8-21.9,0
			C195.5,428.3,94.5,371.6,61,352.8c-6.8-3.8-11-10.8-11-18.5c0-37.7,0-151,0-188.7c0-7.6,4.2-14.7,11-18.5
			C94.5,108.4,195.5,51.7,229,32.9L229,32.9z"/>
		<path class="st1" d="M53,344c-2.7-3.6-3-6.9-3-11.5c0-37.4,0-150.1,0-187.6c0-7.6,4.2-14.6,10.9-18.4
			C94.4,107.9,195,51.5,228.4,32.8c6.8-3.8,15.9-3.7,22.7,0.1c33.4,18.7,133.7,74.6,167.1,93.3c2.7,1.5,4.8,3.4,6.6,5.8L53,344z"/>
		<path class="st2" d="M240,100c-77.3,0-140,62.7-140,140s62.7,140,140,140s140-62.7,140-140S317.3,100,240,100z M240,310
			c-38.6,0-70-31.4-70-70s31.4-70,70-70s70,31.4,70,70S278.6,310,240,310z"/>
		<path class="st1" d="M424.9,132.1c5.2,4.8,5.1,12.1,5.1,17.8c0,37.9-0.3,145.9,0.1,183.8c0,4-1.3,8.1-3.2,11.3L235.9,240
			L424.9,132.1z"/>
		<rect x="340" y="200" class="st2" width="10" height="80"/>
		<rect x="370" y="200" class="st2" width="10" height="80"/>
		<rect x="320" y="250" class="st2" width="80" height="10"/>
		<rect x="320" y="220" class="st2" width="80" height="10"/>
	</g>
</g>
</svg>
