<?xml version="1.0" encoding="utf-8"?>
<!-- Generator: Adobe Illustrator 19.2.0, SVG Export Plug-In . SVG Version: 6.00 Build 0)  -->
<svg version="1.1" id="Layer_1" xmlns="http://www.w3.org/2000/svg" xmlns:xlink="http://www.w3.org/1999/xlink" x="0px" y="0px"
	 viewBox="0 0 288 288" style="enable-background:new 0 0 288 288;" xml:space="preserve">
<style type="text/css">
	.st0{fill:#FFFFFF;}
	.st1{fill:#6A747C;}
	.st2{fill:#E2231A;}
</style>
<g>
	<g>
		<g>
			<path class="st0" d="M145.2,50c-52.6,0-95.4,42.8-95.4,95.4c0,26.5,10.6,51.1,29.8,69.3l1,1l1.1-1c2.8-2.6,5.7-4.9,8.7-7.1
				c14.6,12.9,33.8,20.8,54.8,20.8c21,0,40.2-7.9,54.8-20.7c3,2.2,5.9,4.5,8.7,7.1l1.1,1l1-1c19.3-18.2,29.9-42.9,29.9-69.3
				C240.6,92.9,197.8,50,145.2,50z"/>
			<path class="st1" d="M145.2,50c-52.6,0-95.4,42.8-95.4,95.4c0,26.5,10.6,51.1,29.8,69.3l1,1l1.1-1c2.8-2.6,5.7-4.9,8.7-7.1
				c14.6,12.9,33.8,20.8,54.8,20.8c21,0,40.2-7.9,54.8-20.7c3,2.2,5.9,4.5,8.7,7.1l1.1,1l1-1c19.3-18.2,29.9-42.9,29.9-69.3
				C240.6,92.9,197.8,50,145.2,50z M145.2,225.4c-20,0-38.2-7.4-52.2-19.5c10.3-6.9,21.9-11.7,34.1-14.1v13h9.9v9.9h20.7
				c3,0,5.4-2.4,5.4-5.4v-17.6c12.3,2.4,23.9,7.2,34.3,14.1C183.3,218,165.1,225.4,145.2,225.4z M153.1,204.8v-13.1h6.8v17.6
				c0,1.3-1,2.3-2.3,2.3H140v-6.8H153.1z M140,201.7v-10.1h10.1v10.1H140z M150.1,188.6h-13.1v13.1h-6.8v-17.3
				c0-1.5,1.2-2.7,2.7-2.7h17.3V188.6z M199.7,203.8c-11-7.6-23.5-12.7-36.7-15.2h-9.9v-9.9h-20.3c-3.2,0-5.8,2.6-5.8,5.8v4.2
				c-13.1,2.5-25.5,7.6-36.5,15.1c-15.6-14.6-25.3-35.3-25.3-58.3c0-44.1,35.8-79.9,79.9-79.9s79.9,35.8,79.9,79.9
				C225.1,168.4,215.3,189.2,199.7,203.8z M209.6,211.5c-2.4-2.1-4.8-4.1-7.4-6c15.9-15.1,25.9-36.5,25.9-60.1c0-45.8-37.2-83-83-83
				s-83,37.2-83,83c0,23.6,9.9,44.9,25.8,60.1c-2.5,1.9-5,3.9-7.4,6c-17.9-17.5-27.8-40.9-27.8-66.1c0-50.9,41.4-92.4,92.4-92.4
				s92.4,41.4,92.4,92.4C237.5,170.6,227.6,194,209.6,211.5z"/>
			<path class="st2" d="M243.5,111.4H37.6v49.9c0,4.6,3.8,8.4,8.4,8.4h205.9v-49.9C251.8,115.1,248.1,111.4,243.5,111.4z"/>
			<g>
				<path class="st0" d="M83.4,126.1h4.5v25.8h-3.8l-14.3-18.4v18.4h-4.5v-25.8h4.2L83.4,144V126.1z"/>
				<path class="st0" d="M102.2,148.7c2.2,0,3.7-0.8,5.3-2.3l2.6,2.3c-1.8,2.2-4.4,3.7-8,3.7c-5.6,0-10-4.1-10-10.2
					c0-5.6,4-10.2,9.5-10.2c6.2,0,9.3,4.9,9.3,10.5c0,0.4,0,0.8-0.1,1.2H96.6C97.1,146.9,99.3,148.7,102.2,148.7z M106.5,140.8
					c-0.3-2.9-2-5.1-4.9-5.1c-2.7,0-4.7,2.1-5.1,5.1H106.5z"/>
				<path class="st0" d="M119.4,145.8c0,1.7,0.9,2.4,2.4,2.4c1,0,1.9-0.2,2.8-0.7v3.7c-1.1,0.6-2.4,1-4,1c-3.3,0-5.6-1.4-5.6-5.7
					v-10.3h-2.5v-3.8h2.5v-5.4h4.5v5.4h5.2v3.8h-5.2V145.8z"/>
				<path class="st0" d="M147.6,145.8l4-13.4h4.5l-6.4,19.6h-4l-4.4-13.3l-4.4,13.3h-4l-6.3-19.6h4.6l3.9,13.4l4.3-13.4h3.8
					L147.6,145.8z"/>
				<path class="st0" d="M167.4,152.4c-5.9,0-10.3-4.5-10.3-10.1c0-5.6,4.4-10.2,10.4-10.2c6,0,10.4,4.5,10.4,10.2
					C177.9,147.8,173.4,152.4,167.4,152.4z M167.4,135.9c-3.6,0-5.9,2.8-5.9,6.2c0,3.5,2.5,6.3,5.9,6.3c3.6,0,5.9-2.8,5.9-6.2
					C173.4,138.8,170.9,135.9,167.4,135.9z"/>
				<path class="st0" d="M185.8,151.9h-4.5v-19.5h4.5v4.4c1.2-2.9,3.5-4.9,6.9-4.8v4.7h-0.3c-3.9,0-6.6,2.5-6.6,7.7V151.9z"/>
				<path class="st0" d="M213.5,151.9h-5.2l-5.9-8.4l-2.7,2.8v5.6h-4.5v-27h4.5v16.1l8.1-8.6h5.4l-7.8,7.9L213.5,151.9z"/>
				<path class="st0" d="M220.9,129.8h4.2v7.1h7.1v4.1h-7.1v7.1h-4.2V141h-7.1v-4.1h7.1V129.8z"/>
			</g>
			<g>
				<g>
					<path class="st2" d="M121.3,92.1c-2.2,0-4,1.5-4,3.4c0,1.9,1.8,3.4,4,3.4c2.2,0,4-1.5,4-3.4C125.3,93.6,123.5,92.1,121.3,92.1
						 M121.3,101.2c-3.5,0-6.3-2.5-6.3-5.7c0-3.2,2.8-5.7,6.3-5.7c3.5,0,6.3,2.5,6.3,5.7C127.6,98.7,124.8,101.2,121.3,101.2"/>
					<path class="st2" d="M143.8,101.2c-1.3,0-2.3-1-2.3-2.3l0-4.7c0-1.1-1-2-2.2-2c-1.2,0-2.2,0.9-2.2,2l0,7c-1.3,0-2.3-1-2.3-2.3
						l0-4.8c0-1.1-1-2-2.2-2c-1.2,0-2.2,0.9-2.2,2l0,4.7c0,1.3-1,2.3-2.3,2.3l0-7c0-2.4,2-4.3,4.5-4.3c1.3,0,2.5,0.5,3.3,1.4
						c0.8-0.9,2-1.4,3.3-1.4c2.5,0,4.5,1.9,4.5,4.3L143.8,101.2z"/>
					<path class="st2" d="M151.2,101.1c-0.6,0-1.2,0-1.7-0.2c-1.2-0.3-1.9-1.6-1.6-2.8c0-0.1,0.1-0.3,0.1-0.4l0,0
						c0.6,0.7,1.7,1.1,3.1,1.1c2.1,0,3.7-1.5,3.7-3.3c0-1.9-1.6-3.5-3.7-3.5c-2,0-4,1.1-4,3.5l0,7.4c0,1.2-1,2.2-2.3,2.2l0-9.6
						c0-3.3,2.6-5.8,6.2-5.8c1.6,0,3.1,0.6,4.2,1.6c1.1,1.1,1.8,2.5,1.8,4.1C157.2,98.7,154.6,101.1,151.2,101.1"/>
					<path class="st2" d="M167.5,87.6l-4.9,0l0,13.5h-0.1c-1.2,0-2.2-1-2.2-2.3l0-11.2l-4.9,0c-1.2,0-2.2-1-2.2-2.3l16.6,0
						C169.7,86.6,168.7,87.6,167.5,87.6"/>
					<path class="st2" d="M182,87.7l-3.2,7.1l6.1,0l-3.3-7.2L182,87.7z M187,99.7l-1.2-2.6l-8.1,0l-1.2,2.7
						c-0.6,1.1-2.1,1.4-3.2,1.4l6.6-14.5c0.4-0.8,1-1.3,1.8-1.3c0.8,0,1.5,0.5,1.8,1.3l6.5,14.3C188.9,101.1,187.5,100.8,187,99.7"
						/>
					<path class="st2" d="M112.4,89.6c-1.2-1.3-3-2.2-5-2.2c-3.5,0-6.4,2.6-6.4,5.7c0,3.2,2.9,5.8,6.4,5.8c1.7,0,3.3-0.6,4.5-1.7
						c0.8-0.7,2.1-0.6,2.9,0c-0.6,1-1.5,1.8-2.5,2.4c-1.5,0.9-3.1,1.4-4.9,1.4c-4.8,0-8.7-3.6-8.7-8c0-4.4,3.9-8,8.7-8
						c3.4,0,6.5,1.9,7.9,4.7C114.4,90.5,113.2,90.4,112.4,89.6"/>
					<path class="st2" d="M191.4,99.3c0,0-0.1,0-0.1,0c0,0,0.1,0.1,0.3,0.4l0,0c-0.1,0.1-0.2,0.1-0.3,0c-0.3-0.3-0.3-0.3-0.3-0.3
						l-0.3,0v-0.1c0-0.1,0.1-0.2,0.2-0.2h0.1c0.1,0,0.2,0,0.2,0c0,0,0.1,0,0.1-0.1c0,0,0-0.1-0.3-0.1l-0.4,0v0.8
						c0,0.1-0.1,0.2-0.2,0.2h-0.1l0-1c0-0.1,0.1-0.2,0.2-0.2h0.5c0.5,0,0.6,0.3,0.6,0.4C191.6,99.1,191.5,99.2,191.4,99.3
						 M190.9,98.4c-0.5,0-0.9,0.4-0.9,0.8c0,0.5,0.4,0.8,0.9,0.8c0.5,0,1-0.4,1-0.8C191.9,98.7,191.5,98.4,190.9,98.4 M190.9,100.3
						c-0.7,0-1.2-0.5-1.2-1.1c0-0.6,0.5-1.1,1.2-1.1c0.7,0,1.2,0.5,1.2,1.1C192.1,99.8,191.6,100.3,190.9,100.3"/>
					<path class="st2" d="M170.5,85.4l0,13.6c0,1.2,1,2.2,2.3,2.2l0-13.6C172.7,86.4,171.7,85.4,170.5,85.4"/>
				</g>
			</g>
		</g>
	</g>
	<path class="st1" d="M210,209.3c0,0-0.1,0-0.1,0c0,0,0.1,0.1,0.3,0.4l0,0c-0.1,0.1-0.2,0.1-0.3,0c-0.3-0.3-0.3-0.3-0.3-0.3h-0.3
		v-0.1c0-0.1,0.1-0.2,0.2-0.2h0.1c0.1,0,0.2,0,0.2,0c0,0,0.1,0,0.1-0.1c0,0,0-0.1-0.3-0.1h-0.4v0.8c0,0.1-0.1,0.2-0.2,0.2h-0.1v-1
		c0-0.1,0.1-0.2,0.2-0.2h0.5c0.5,0,0.6,0.3,0.6,0.4C210.2,209.1,210.1,209.2,210,209.3 M209.5,208.3c-0.5,0-0.9,0.4-0.9,0.8
		c0,0.5,0.4,0.8,0.9,0.8c0.5,0,1-0.4,1-0.8C210.5,208.7,210.1,208.3,209.5,208.3 M209.5,210.2c-0.7,0-1.2-0.5-1.2-1.1
		c0-0.6,0.5-1.1,1.2-1.1c0.7,0,1.2,0.5,1.2,1.1C210.7,209.7,210.2,210.2,209.5,210.2"/>
</g>
</svg>
