<svg id="Layer_1" data-name="Layer 1" xmlns="http://www.w3.org/2000/svg" viewBox="0 0 1020.29 512.66"><title>php logo</title><path d="M82.59,363.51H233.91q66.61.56,96.54,38.39t19.77,103.32a198.15,198.15,0,0,1-17.51,58.72,174.66,174.66,0,0,1-36.13,51.95q-28.24,29.36-60.41,37.26a278.38,278.38,0,0,1-66.63,7.91H101.79L80.33,768.33H1.86L82.59,363.51h0m66.06,64.36L114.78,597.26a41.69,41.69,0,0,0,6.77.56h7.91q54.19.55,90.33-10.73,36.14-11.85,48.56-82.43,10.15-59.28-20.33-68.32-29.93-9-75.09-8.47c-4.52.38-8.84.57-13,.57H148.09l.56-.57" transform="translate(-1.86 -255.67)"/><path d="M439.61,255.67h77.92l-22,107.84h70q57.59,1.14,85.82,23.71,28.8,22.59,16.94,85.82l-37.83,188h-79l36.13-179.55q5.64-28.23-3.39-40.09t-39-11.85L482.52,429,436.23,661.06H358.31l81.3-405.39h0" transform="translate(-1.86 -255.67)"/><path d="M752,363.51H903.26q66.62.56,96.55,38.39t19.76,103.32a198.13,198.13,0,0,1-17.5,58.72,174.7,174.7,0,0,1-36.14,51.95q-28.23,29.36-60.41,37.26a278.36,278.36,0,0,1-66.62,7.91H771.14L749.69,768.33H671.21L752,363.51h0m66,64.36L784.13,597.26a41.88,41.88,0,0,0,6.77.56h7.91q54.2.55,90.33-10.73,36.14-11.85,48.56-82.43,10.17-59.28-20.33-68.32-29.93-9-75.09-8.47-6.76.57-13,.57H817.44l.56-.57" transform="translate(-1.86 -255.67)"/></svg>