<svg id="Layer_1" data-name="Layer 1" xmlns="http://www.w3.org/2000/svg" xmlns:xlink="http://www.w3.org/1999/xlink" viewBox="0 0 978.44 989.25"><defs><style>.cls-1{fill:url(#linear-gradient);}.cls-2{fill:url(#linear-gradient-2);}</style><linearGradient id="linear-gradient" x1="-7.58" y1="934.36" x2="951.98" y2="108.79" gradientTransform="matrix(0.56, 0, 0, -0.57, -8.96, 564.23)" gradientUnits="userSpaceOnUse"><stop offset="0" stop-color="#5a9fd4"/><stop offset="1" stop-color="#306998"/></linearGradient><linearGradient id="linear-gradient-2" x1="1322.96" y1="-390.89" x2="980.3" y2="93.92" gradientTransform="matrix(0.56, 0, 0, -0.57, -8.96, 564.23)" gradientUnits="userSpaceOnUse"><stop offset="0" stop-color="#ffd43b"/><stop offset="1" stop-color="#ffe873"/></linearGradient></defs><title>python</title><path id="path1948" class="cls-1" d="M494.17,5.38C453.83,5.57,415.3,9,381.4,15c-99.87,17.64-118,54.57-118,122.68v89.94h236v30H174.83c-68.59,0-128.65,41.22-147.44,119.65-21.67,89.89-22.63,146,0,239.85C44.17,687,84.23,736.78,152.82,736.78H234V629c0-77.9,67.4-146.61,147.44-146.61H617.13c65.62,0,118-54,118-119.93V137.69c0-64-54-112-118-122.68A736.79,736.79,0,0,0,494.17,5.38ZM366.54,77.72c24.38,0,44.29,20.24,44.29,45.11s-19.91,44.84-44.29,44.84-44.28-20-44.28-44.84S342.08,77.72,366.54,77.72Z" transform="translate(-10.78 -5.37)"/><path id="path1950" class="cls-2" d="M764.56,257.62V362.41c0,81.25-68.88,149.64-147.43,149.64H381.4c-64.57,0-118,55.26-118,119.93V856.7c0,64,55.61,101.58,118,119.93,74.7,22,146.34,25.94,235.73,0,59.41-17.2,118-51.82,118-119.93V766.76H499.4v-30H853.13c68.59,0,94.15-47.85,118-119.66,24.64-73.92,23.59-145,0-239.85-17-68.28-49.32-119.65-118-119.65ZM632,826.72c24.47,0,44.29,20,44.29,44.84S656.45,916.67,632,916.67s-44.28-20.24-44.28-45.11S607.6,826.72,632,826.72Z" transform="translate(-10.78 -5.37)"/></svg>